<svg id="eFjKhWwPvLx1" xmlns="http://www.w3.org/2000/svg" xmlns:xlink="http://www.w3.org/1999/xlink" viewBox="0 0 2013 1668" shape-rendering="geometricPrecision" text-rendering="geometricPrecision"><defs><linearGradient id="eFjKhWwPvLx2-fill" x1="0.5" y1="-0.013284" x2="0.5" y2="1" spreadMethod="pad" gradientUnits="objectBoundingBox" gradientTransform="translate(0 0)"><stop id="eFjKhWwPvLx2-fill-0" offset="0%" stop-color="#0c9043"/><stop id="eFjKhWwPvLx2-fill-1" offset="100%" stop-color="#24592f"/></linearGradient><radialGradient id="eFjKhWwPvLx3-fill" cx="0" cy="0" r="1.638335" spreadMethod="pad" gradientUnits="objectBoundingBox" gradientTransform="matrix(0.168902 0.985633 -1.751615 0.300163 0.5 0.5)"><stop id="eFjKhWwPvLx3-fill-0" offset="0%" stop-color="#1bad58"/><stop id="eFjKhWwPvLx3-fill-1" offset="100%" stop-color="#1d4127"/></radialGradient><radialGradient id="eFjKhWwPvLx4-fill" cx="0" cy="0" r="1.638335" spreadMethod="pad" gradientUnits="objectBoundingBox" gradientTransform="matrix(0.168902 0.985633 -1.751615 0.300163 0.5 0.5)"><stop id="eFjKhWwPvLx4-fill-0" offset="0%" stop-color="#1bad58"/><stop id="eFjKhWwPvLx4-fill-1" offset="100%" stop-color="#1d4127"/></radialGradient><radialGradient id="eFjKhWwPvLx5-fill" cx="0" cy="0" r="1.638335" spreadMethod="pad" gradientUnits="objectBoundingBox" gradientTransform="matrix(0.168902 0.985633 -1.751615 0.300163 0.5 0.5)"><stop id="eFjKhWwPvLx5-fill-0" offset="0%" stop-color="#1bad58"/><stop id="eFjKhWwPvLx5-fill-1" offset="100%" stop-color="#1d4127"/></radialGradient><radialGradient id="eFjKhWwPvLx6-fill" cx="0" cy="0" r="1.638335" spreadMethod="pad" gradientUnits="objectBoundingBox" gradientTransform="matrix(0.168902 0.985633 -1.751615 0.300163 0.5 0.5)"><stop id="eFjKhWwPvLx6-fill-0" offset="0%" stop-color="#1bad58"/><stop id="eFjKhWwPvLx6-fill-1" offset="100%" stop-color="#1d4127"/></radialGradient><radialGradient id="eFjKhWwPvLx7-fill" cx="0" cy="0" r="1.638335" spreadMethod="pad" gradientUnits="objectBoundingBox" gradientTransform="matrix(0.168902 0.985633 -1.751615 0.300163 0.5 0.5)"><stop id="eFjKhWwPvLx7-fill-0" offset="0%" stop-color="#1bad58"/><stop id="eFjKhWwPvLx7-fill-1" offset="100%" stop-color="#1d4127"/></radialGradient><radialGradient id="eFjKhWwPvLx8-fill" cx="0" cy="0" r="1.638335" spreadMethod="pad" gradientUnits="objectBoundingBox" gradientTransform="matrix(0.168902 0.985633 -1.751615 0.300163 0.5 0.5)"><stop id="eFjKhWwPvLx8-fill-0" offset="0%" stop-color="#1bad58"/><stop id="eFjKhWwPvLx8-fill-1" offset="100%" stop-color="#1d4127"/></radialGradient><radialGradient id="eFjKhWwPvLx9-fill" cx="0" cy="0" r="1.638335" spreadMethod="pad" gradientUnits="objectBoundingBox" gradientTransform="matrix(0.168902 0.985633 -1.751615 0.300163 0.5 0.5)"><stop id="eFjKhWwPvLx9-fill-0" offset="0%" stop-color="#1bad58"/><stop id="eFjKhWwPvLx9-fill-1" offset="100%" stop-color="#1d4127"/></radialGradient><radialGradient id="eFjKhWwPvLx10-fill" cx="0" cy="0" r="1.638335" spreadMethod="pad" gradientUnits="objectBoundingBox" gradientTransform="matrix(0.168902 0.985633 -1.751615 0.300163 0.5 0.5)"><stop id="eFjKhWwPvLx10-fill-0" offset="0%" stop-color="#1bad58"/><stop id="eFjKhWwPvLx10-fill-1" offset="100%" stop-color="#1d4127"/></radialGradient><radialGradient id="eFjKhWwPvLx11-fill" cx="0" cy="0" r="1.638335" spreadMethod="pad" gradientUnits="objectBoundingBox" gradientTransform="matrix(0.168902 0.985633 -1.751615 0.300163 0.5 0.5)"><stop id="eFjKhWwPvLx11-fill-0" offset="0%" stop-color="#20823f"/><stop id="eFjKhWwPvLx11-fill-1" offset="100%" stop-color="#1d4127"/></radialGradient><radialGradient id="eFjKhWwPvLx12-fill" cx="0" cy="0" r="1.638335" spreadMethod="pad" gradientUnits="objectBoundingBox" gradientTransform="matrix(0.168902 0.985633 -1.751615 0.300163 0.5 0.5)"><stop id="eFjKhWwPvLx12-fill-0" offset="0%" stop-color="#20823f"/><stop id="eFjKhWwPvLx12-fill-1" offset="100%" stop-color="#1d4127"/></radialGradient><radialGradient id="eFjKhWwPvLx13-fill" cx="0" cy="0" r="1.638335" spreadMethod="pad" gradientUnits="objectBoundingBox" gradientTransform="matrix(0.168902 0.985633 -1.751615 0.300163 0.5 0.5)"><stop id="eFjKhWwPvLx13-fill-0" offset="0%" stop-color="#158644"/><stop id="eFjKhWwPvLx13-fill-1" offset="100%" stop-color="#1d4127"/></radialGradient><radialGradient id="eFjKhWwPvLx14-fill" cx="0" cy="0" r="1.638335" spreadMethod="pad" gradientUnits="objectBoundingBox" gradientTransform="matrix(0.168902 0.985633 -1.751615 0.300163 0.5 0.5)"><stop id="eFjKhWwPvLx14-fill-0" offset="0%" stop-color="#1a783e"/><stop id="eFjKhWwPvLx14-fill-1" offset="100%" stop-color="#1d4127"/></radialGradient><radialGradient id="eFjKhWwPvLx15-fill" cx="0" cy="0" r="1.638335" spreadMethod="pad" gradientUnits="objectBoundingBox" gradientTransform="matrix(0.168902 0.985633 -1.751615 0.300163 0.5 0.5)"><stop id="eFjKhWwPvLx15-fill-0" offset="0%" stop-color="#1a783e"/><stop id="eFjKhWwPvLx15-fill-1" offset="100%" stop-color="#1d4127"/></radialGradient><radialGradient id="eFjKhWwPvLx16-fill" cx="0" cy="0" r="1.638335" spreadMethod="pad" gradientUnits="objectBoundingBox" gradientTransform="matrix(0.168902 0.985633 -1.751615 0.300163 0.5 0.5)"><stop id="eFjKhWwPvLx16-fill-0" offset="0%" stop-color="#2a7b3f"/><stop id="eFjKhWwPvLx16-fill-1" offset="100%" stop-color="#1d4127"/></radialGradient><radialGradient id="eFjKhWwPvLx17-fill" cx="0" cy="0" r="1.638335" spreadMethod="pad" gradientUnits="objectBoundingBox" gradientTransform="matrix(0.168902 0.985633 -1.751615 0.300163 0.5 0.5)"><stop id="eFjKhWwPvLx17-fill-0" offset="0%" stop-color="#20823f"/><stop id="eFjKhWwPvLx17-fill-1" offset="100%" stop-color="#1d4127"/></radialGradient><radialGradient id="eFjKhWwPvLx18-fill" cx="0" cy="0" r="1.638335" spreadMethod="pad" gradientUnits="objectBoundingBox" gradientTransform="matrix(0.168902 0.985633 -1.751615 0.300163 0.5 0.5)"><stop id="eFjKhWwPvLx18-fill-0" offset="0%" stop-color="#20823f"/><stop id="eFjKhWwPvLx18-fill-1" offset="100%" stop-color="#1d4127"/></radialGradient></defs><ellipse rx="977.820783" ry="734.774096" transform="matrix(1 0 0 1.072365 1006.5 834)" fill="url(#eFjKhWwPvLx2-fill)"  /><path d="M208.081325,590.331325c62.801205,213.524097,41.86747,247.018072,121.415663,12.560241q79.548193-234.457831-46.054218,37.680722-138.162651-263.765061-75.361445-50.240963Z" transform="matrix(-.756177 0.654367-.410575-.474454 2311.420065 690.27085)" fill="url(#eFjKhWwPvLx3-fill)" stroke-width="4.026"/><path d="M208.081325,590.331325c62.801205,213.524097,41.86747,247.018072,121.415663,12.560241q79.548193-234.457831-46.054218,37.680722-138.162651-263.765061-75.361445-50.240963Z" transform="matrix(-.984282 0.176601-.110806-.617576 2150.224843 920.912666)" fill="url(#eFjKhWwPvLx4-fill)" stroke-width="4.026"/><path d="M208.081325,590.331325c62.801205,213.524097,41.86747,247.018072,121.415663,12.560241q79.548193-234.457831-46.054218,37.680722-138.162651-263.765061-75.361445-50.240963Z" transform="matrix(-.897298-.441426 0.276968-.562999 340.840506 1165.58869)" fill="url(#eFjKhWwPvLx5-fill)" stroke-width="4.026"/><path d="M208.081325,590.331325c62.801205,213.524097,41.86747,247.018072,121.415663,12.560241q79.548193-234.457831-46.054218,37.680722-138.162651-263.765061-75.361445-50.240963Z" transform="matrix(-.869692-.493595 0.3097-.545678 640.795268 689.290857)" fill="url(#eFjKhWwPvLx6-fill)" stroke-width="4.026"/><path d="M208.081325,590.331325c62.801205,213.524097,41.86747,247.018072,121.415663,12.560241q79.548193-234.457831-46.054218,37.680722-138.162651-263.765061-75.361445-50.240963Z" transform="matrix(-.488557-.872532 0.54746-.306539 19.756979 1093.888041)" fill="url(#eFjKhWwPvLx7-fill)" stroke-width="4.026"/><path d="M208.081325,590.331325c62.801205,213.524097,41.86747,247.018072,121.415663,12.560241q79.548193-234.457831-46.054218,37.680722-138.162651-263.765061-75.361445-50.240963Z" transform="matrix(-.999267-.038282 0.02402-.626978 1687.347145 720.482255)" fill="url(#eFjKhWwPvLx8-fill)" stroke-width="4.026"/><path d="M208.081325,590.331325c62.801205,213.524097,41.86747,247.018072,121.415663,12.560241q79.548193-234.457831-46.054218,37.680722-138.162651-263.765061-75.361445-50.240963Z" transform="matrix(-.872776 0.488122-.306266-.547613 1890.247851 529.2162)" fill="url(#eFjKhWwPvLx9-fill)" stroke-width="4.026"/><path d="M208.081325,590.331325c62.801205,213.524097,41.86747,247.018072,121.415663,12.560241q79.548193-234.457831-46.054218,37.680722-138.162651-263.765061-75.361445-50.240963Z" transform="matrix(-.387589-.921832 0.578393-.243188 316.513164 587.690105)" fill="url(#eFjKhWwPvLx10-fill)" stroke-width="4.026"/><path d="M208.081325,590.331325c62.801205,213.524097,41.86747,247.018072,121.415663,12.560241q79.548193-234.457831-46.054218,37.680722-138.162651-263.765061-75.361445-50.240963Z" transform="matrix(-.643821 0.765176-.480101-.403958 2248.807395 1119.024256)" fill="url(#eFjKhWwPvLx11-fill)" stroke-width="4.026"/><path d="M208.081325,590.331325c62.801205,213.524097,41.86747,247.018072,121.415663,12.560241q79.548193-234.457831-46.054218,37.680722-138.162651-263.765061-75.361445-50.240963Z" transform="matrix(-.936115 0.351695-.220667-.587354 1488.482296 1265.505178)" fill="url(#eFjKhWwPvLx12-fill)" stroke-width="4.026"/><path d="M208.081325,590.331325c62.801205,213.524097,41.86747,247.018072,121.415663,12.560241q79.548193-234.457831-46.054218,37.680722-138.162651-263.765061-75.361445-50.240963Z" transform="matrix(-.634198-.773171 0.485117-.39792 174.830751 1841.252724)" fill="url(#eFjKhWwPvLx13-fill)" stroke-width="4.026"/><path d="M208.081325,590.331325c62.801205,213.524097,41.86747,247.018072,121.415663,12.560241q79.548193-234.457831-46.054218,37.680722-138.162651-263.765061-75.361445-50.240963Z" transform="matrix(-.699529 0.714604-.44837-.438911 2183.338211 1462.289594)" fill="url(#eFjKhWwPvLx14-fill)" stroke-width="4.026"/><path d="M208.081325,590.331325c62.801205,213.524097,41.86747,247.018072,121.415663,12.560241q79.548193-234.457831-46.054218,37.680722-138.162651-263.765061-75.361445-50.240963Z" transform="matrix(-.674898 0.367146-.222331-.408695 1456.211942 1750.978614)" fill="url(#eFjKhWwPvLx15-fill)" stroke-width="4.026"/><path d="M208.081325,590.331325c62.801205,213.524097,41.86747,247.018072,121.415663,12.560241q79.548193-234.457831-46.054218,37.680722-138.162651-263.765061-75.361445-50.240963Z" transform="matrix(-.999388-.034986 0.021951-.627054 1132.787156 1834.062089)" fill="url(#eFjKhWwPvLx16-fill)" stroke-width="4.026"/><path d="M208.081325,590.331325c62.801205,213.524097,41.86747,247.018072,121.415663,12.560241q79.548193-234.457831-46.054218,37.680722-138.162651-263.765061-75.361445-50.240963Z" transform="matrix(-.48026 0.877126-.550342-.301333 697.278013 1165.839419)" fill="url(#eFjKhWwPvLx17-fill)" stroke-width="4.026"/><path d="M208.081325,590.331325c62.801205,213.524097,41.86747,247.018072,121.415663,12.560241q79.548193-234.457831-46.054218,37.680722-138.162651-263.765061-75.361445-50.240963Z" transform="matrix(-.999987-.005195 0.00326-.62743 454.504818 1634.298827)" fill="url(#eFjKhWwPvLx18-fill)" stroke-width="4.026"/></svg>
